PathFileType	4	(X/Y/Z)	C:/Users/beibeiliu/ov580/test_trc/User1\sequence.16_training_dense_left.trc
DataRate	CameraRate	NumFrames	NumMarkers	Units	OrigDataRate	OrigDataStartFrame	OrigNumFrames
120	120	20	19	mm	120	235	268
Frame#	Time	ThumbCMC			ThumbMCP			ThumbIP			ThumbTip			IndexMCP			IndexPIP			IndexTip			MiddleMCP			MiddlePIP			MiddleTip			RingMCP			RingPIP			RingTip			PinkyMCP			PinkyPIP			PinkyTip			BackHand1			BackHand2			BackHand3	
		X0	Y0	Z0	X1	Y1	Z1	X2	Y2	Z2	X3	Y3	Z3	X4	Y4	Z4	X5	Y5	Z5	X6	Y6	Z6	X7	Y7	Z7	X8	Y8	Z8	X9	Y9	Z9	X10	Y10	Z10	X11	Y11	Z11	X12	Y12	Z12	X13	Y13	Z13	X14	Y14	Z14	X15	Y15	Z15	X16	Y16	Z16	X17	Y17	Z17	X18	Y18	Z18	
234	1.95	-192.601	62.7245	30.7122	-178.519	53.2991	6.6084	-165.275	57.8705	-19.6708	-156.891	56.1243	-38.6603	-197.177	74.9914	-50.9729	-209.379	43.6804	-51.813	-209.668	39.8556	-17.5023	-222.808	75.7392	-53.4449	-227.007	41.5926	-44.6946	-225.415	42.6253	-7.63328	-244.925	76.0355	-51.9702	-245.912	46.1393	-45.0599	-242.722	44.6353	-9.35915	-262.41	97.379	-38.0208	-267.532	97.5451	-58.7034	-265.883	103.666	-81.8488	-242.905	108.022	7.4687	-244.679	100.708	42.0174	-211.528	98.6174	26.5793	
235	1.95833	-194.083	61.6281	34.3997	-176.338	55.6717	5.94809	-164.363	56.8113	-18.7217	-156.327	58.5115	-40.3767	-199.95	77.1606	-50.9729	-208.634	46.9648	-54.6862	-208.858	40.5218	-16.0659	-225.81	75.5768	-53.8346	-225.118	41.6073	-44.7264	-225.861	43.3318	-7.30803	-246.499	76.8324	-51.4137	-245.386	44.8989	-43.7197	-243.64	43.1348	-11.625	-265.727	98.7209	-39.9723	-265.291	97.4143	-61.1538	-262.611	102.187	-80.5324	-245.758	106.637	7.98922	-250.535	99.8902	42.9654	-208.65	99.8393	24.9608	
236	1.96667	-191.163	61.3763	33.4647	-174.543	54.3566	6.54354	-163.256	57.9471	-19.9572	-153.208	57.1881	-38.9768	-197.013	73.9816	-51.4505	-209.581	46.2412	-52.7422	-211.637	41.9045	-14.1697	-223.075	79.1279	-50.6746	-228.162	41.8733	-43.7937	-225.557	42.6629	-8.07775	-244.394	79.3003	-49.5735	-247.665	43.2033	-41.7503	-243.795	44.6349	-9.33217	-266.523	98.9041	-38.5294	-263.495	98.6229	-62.1252	-258.479	102.55	-83.9969	-243.07	106.279	9.41906	-250.156	101.627	41.3039	-212.429	98.7963	25.4109	
237	1.975	-195.396	65.4951	29.4446	-174.8	58.1832	3.98299	-166.734	59.53	-18.9879	-150.913	57.1557	-37.6943	-197.951	74.483	-52.283	-206.946	46.7536	-53.9296	-212.446	42.3167	-17.9065	-221.493	77.0652	-53.1729	-225.024	42.692	-46.301	-226.493	44.2136	-6.28914	-245.508	79.6141	-50.5487	-246.042	45.8817	-46.1242	-240.801	43.2994	-12.344	-260.629	98.9022	-40.5034	-264.295	100.03	-56.9865	-261.174	104.815	-84.8555	-246.297	106.715	7.42774	-247.146	102.403	39.6613	-214.214	100.309	26.2836	
238	1.98333	-191.084	64.2504	32.8465	-174.584	56.0721	9.52724	-158.918	59.1317	-16.033	-147.831	58.3917	-32.8014	-196.074	76.1938	-49.981	-207.673	43.6164	-50.6136	-206.775	41.5187	-16.491	-222.912	77.1978	-53.2056	-229.921	43.2075	-45.2291	-224.233	43.7719	-6.14991	-243.511	77.7888	-51.5331	-245.321	46.8369	-46.9715	-242.022	43.6235	-12.4551	-264.41	100.703	-40.49	-263.442	101.043	-59.6196	-263.336	107.946	-80.9678	-242.752	106.06	9.3697	-249.136	103.642	39.3286	-211.849	96.408	28.6528	
239	1.99167	-191.01	63.4183	35.2679	-174.84	57.1901	10.6339	-157.779	59.2709	-11.7334	-140.223	57.3209	-27.6267	-200.028	76.3297	-49.7879	-207.066	44.7382	-52.6136	-209.543	41.9552	-15.2591	-223.974	77.7138	-52.6953	-231.424	44.0869	-45.8632	-226.563	44.0108	-5.99559	-246.264	80.4852	-50.1669	-246.195	45.5626	-44.9459	-244.97	43.2949	-14.1624	-262.982	100.622	-34.7517	-266.954	103.505	-59.9038	-265.52	111.299	-76.3767	-244.563	107.362	6.65871	-249.348	102.059	43.649	-211.772	98.3942	27.4116	
240	2	-191.032	64.5652	33.2966	-172.128	55.996	16.2394	-153.541	58.6737	-6.21569	-140.818	57.6831	-23.2147	-200.944	75.8	-49.7595	-211.859	43.3912	-50.1876	-210.723	39.6586	-18.4915	-227.597	75.1115	-53.8938	-231.245	44.8935	-48.6467	-225.502	42.1136	-6.1105	-243.484	79.5503	-50.9964	-246.639	46.8931	-46.933	-243.955	43.3779	-11.8076	-270.159	102.219	-38.5878	-273.226	103.67	-56.1114	-272.92	113.415	-76.7966	-245.593	108.254	9.08328	-246.813	99.8812	41.1717	-210.62	98.2169	27.3362	
241	2.00833	-194.902	64.5318	37.0313	-171.207	57.6591	16.4228	-150.517	62.3968	-5.30715	-138.225	58.5088	-17.3925	-199.428	75.6086	-49.6821	-209.736	45.4905	-53.8443	-211.822	40.7278	-18.8084	-224.652	77.783	-53.2205	-228.144	42.4694	-48.7445	-225.891	39.3397	-9.10492	-246.393	79.8472	-51.693	-249.224	43.5101	-45.8676	-241.003	42.4155	-12.7629	-274.216	99.8257	-36.1161	-279.843	102.456	-56.1872	-285.894	111.528	-74.1484	-246.131	107.82	9.76726	-250.305	99.5495	42.4483	-214.426	98.5301	23.6165	
242	2.01667	-191.571	65.822	36.453	-173.649	60.9005	14.458	-150.887	62.4378	-1.86042	-131.505	60.8264	-14.83	-199.431	73.6895	-51.8771	-211.404	44.2656	-52.3028	-211.51	41.7635	-16.6316	-227.337	76.2892	-53.8115	-226.866	41.1165	-47.7128	-226.997	38.4033	-10.5381	-251.267	79.9163	-51.2027	-245.117	44.8455	-47.1589	-242.617	41.4891	-12.024	-275.625	99.3155	-35.5664	-281.448	101.254	-53.4944	-293.839	110.199	-72.9704	-243.352	106.095	9.01706	-248.848	98.3414	43.4453	-211.873	98.9415	25.0569	
243	2.025	-192.793	65.8259	36.5311	-171.934	58.7266	17.3993	-153.582	61.6479	-2.74337	-134.321	59.1259	-13.7815	-202.106	76.0825	-51.4554	-213.345	46.111	-53.2147	-210.421	40.8678	-16.4848	-226.199	76.2925	-53.4419	-230.72	42.2592	-48.7405	-228.405	39.9218	-9.15066	-250.296	81.1905	-48.333	-246.224	47.1109	-50.0438	-242.609	41.4892	-12.1423	-276.707	98.0662	-36.17	-285.682	99.8259	-51.1035	-294.461	107.5	-70.33	-243.453	106.175	6.11606	-246.784	99.8012	42.5047	-216.342	99.0356	26.9646	
244	2.03333	-194.051	64.3742	33.795	-172.314	56.2459	17.8906	-155.634	58.5731	-1.69196	-133.956	57.3396	-16.8057	-200.85	76.6001	-49.1123	-213.537	46.2521	-54.5167	-208.767	39.5646	-18.3149	-226.11	76.906	-54.0661	-233.078	43.6545	-48.9341	-228.647	39.3518	-9.96798	-247.753	79.7829	-49.9847	-246.42	43.9443	-46.1574	-244.67	40.9007	-12.4534	-276.661	97.2066	-33.4199	-286.128	97.89	-48.1428	-295.618	107.214	-68.7378	-247.959	105.554	9.74517	-248.308	100.879	41.1614	-211.354	94.7803	28.8093	
245	2.04167	-193.51	62.9102	36.1442	-171.169	56.8378	11.3712	-156.274	56.8497	-4.81746	-141.227	54.0698	-19.3923	-203.002	74.7711	-51.0647	-213.019	44.7577	-52.2457	-208.953	40.2194	-16.733	-225.588	78.9476	-51.7335	-232.741	43.8476	-49.0662	-229.651	40.3363	-9.42309	-247.005	79.0931	-51.0969	-249.037	44.3342	-45.7606	-245.666	40.6857	-14.8572	-278.416	96.36	-32.1735	-283.806	97.4807	-49.9123	-294.943	106.904	-69.0413	-246.076	106.761	6.61844	-248.106	99.493	41.6952	-211.625	96.2734	27.5724	
246	2.05	-191.483	62.2914	32.3209	-174.115	56.7535	7.66426	-161.081	56.3696	-8.41894	-144.413	53.9345	-24.2542	-204.29	73.1077	-52.7653	-213.229	42.2733	-51.7705	-212.458	43.6095	-16.2572	-226.959	76.6562	-53.563	-230.797	40.3937	-46.3883	-224.735	38.4412	-10.5084	-252.838	79.2474	-50.2881	-245.852	42.9941	-45.9434	-244.237	42.3648	-11.9327	-277.492	95.7708	-37.0679	-286.288	96.6571	-54.6239	-294.254	103.023	-68.7538	-243.772	106.576	5.28005	-248.687	97.8248	42.9134	-212.703	97.2559	22.7654	
247	2.05833	-194.993	63.9427	30.4525	-180.348	55.5169	7.03338	-162.021	60.0973	-15.0393	-148.226	56.0584	-27.7003	-200.868	73.7942	-53.1624	-212.581	42.9754	-53.781	-209.697	40.7507	-18.197	-227.85	74.8355	-53.9245	-229.533	40.8331	-48.3257	-224.532	41.2374	-7.26816	-252.186	77.7	-50.5791	-251.081	41.7742	-44.3	-243.785	42.7326	-10.3795	-280.319	93.8433	-35.0969	-286.833	93.8928	-53.6239	-296.089	103.118	-71.2595	-249.425	106.835	4.83467	-249.571	100.001	40.3268	-216.185	97.6647	26.4252	
248	2.06667	-193.429	63.8778	30.0751	-179.852	56.8278	6.58951	-165.078	59.0269	-14.6611	-149.852	58.2163	-32.9502	-205.248	76.0546	-51.6564	-212.938	43.0355	-54.1522	-213.068	42.9821	-17.6882	-232.142	75.1599	-53.6773	-228.359	38.2006	-47.2305	-224.37	37.7592	-10.084	-251.8	76.3127	-50.6001	-247.246	41.4754	-46.0303	-241.072	39.6114	-13.879	-281.408	91.5695	-34.5365	-290.162	89.9476	-52.6908	-303.952	98.4804	-72.222	-248.306	104.855	3.92799	-249.374	100.236	40.7291	-217.492	95.7516	24.5391	
249	2.075	-194.532	65.9164	28.2016	-180.142	58.5037	4.51152	-165.596	62.2928	-20.4474	-151.865	57.9832	-34.1908	-207.266	73.9942	-55.2397	-214.69	44.5142	-55.6303	-211.985	41.4953	-20.2018	-232.401	75.1059	-52.9158	-233.101	39.7387	-48.4016	-228.256	39.2482	-8.43466	-254.774	74.5039	-50.8196	-249.415	39.0041	-44.285	-242.112	42.2067	-10.0984	-283.735	89.9681	-36.4279	-293.725	86.7094	-50.4768	-306.005	93.2348	-70.0241	-254.751	106.115	5.22778	-252.007	97.1995	40.1286	-216.579	97.4116	25.642	
250	2.08333	-199.769	67.199	26.9127	-180.336	58.8575	1.86867	-169.374	62.7955	-23.1963	-157.48	59.2739	-36.2405	-204.397	74.8187	-54.8382	-217.714	44.0614	-56.1869	-213.171	43.7009	-16.0665	-234.672	70.6952	-56.6314	-230.537	38.2304	-48.0824	-228.063	37.2771	-10.4727	-253.745	73.543	-51.2674	-253.447	38.9819	-44.9099	-243.845	39.1919	-13.7436	-283.6	88.2028	-35.6916	-294.699	83.4063	-52.7355	-305.423	88.0891	-71.6621	-251.708	105.031	5.13364	-252.975	97.5231	39.7253	-220.626	97.3776	23.5961	
251	2.09167	-196.397	65.472	28.9448	-181.922	57.3991	3.04112	-171.732	61.644	-23.9891	-159.741	61.9641	-41.2677	-207.776	73.0111	-56.3465	-215.759	42.1233	-55.0365	-213.279	41.054	-20.9305	-232.516	70.7111	-56.1535	-233.147	37.9743	-49.2778	-226.916	36.8021	-10.9464	-255.667	69.9587	-54.2473	-250.047	37.824	-47.2152	-244.698	38.97	-12.7303	-283.19	86.0881	-35.6193	-294.548	82.6644	-53.9098	-305.524	85.211	-78.5819	-252.006	104.608	2.28746	-254.157	98.4588	39.7863	-223.167	99.9531	21.6316	
252	2.1	-199.875	65.6897	28.4887	-179.787	60.4426	-0.0105174	-169.899	61.3316	-21.8855	-156.587	59.1041	-38.8691	-207.093	74.5883	-54.5439	-218.002	40.5755	-53.3466	-214.377	40.9834	-18.0023	-235.549	69.1774	-57.4438	-231.941	37.0779	-50.0813	-224.979	37.9844	-8.0901	-256.213	70.0664	-53.2741	-251.698	38.6553	-48.6362	-247.217	36.4513	-14.5603	-289.164	84.1576	-37.388	-294.373	80.6655	-58.8237	-303.766	82.3094	-80.2959	-253.585	101.824	3.87643	-254.526	98.3563	39.0194	-221.449	99.2831	21.484	
253	2.10833	-195.76	64.756	30.5809	-182.582	59.0954	3.16155	-166.495	61.9697	-19.6451	-151.402	59.3695	-34.3785	-212.644	72.3618	-56.4591	-215.857	41.4287	-56.6068	-212.003	36.9831	-20.6406	-235.28	68.1467	-57.0757	-232.288	36.6075	-51.4551	-227.233	36.9036	-10.8492	-258.793	66.8458	-53.8868	-254.754	36.2444	-46.3558	-246.138	37.6802	-11.632	-288.852	84.0087	-36.9373	-296.48	79.7818	-57.3071	-307.6	83.122	-75.1573	-255.932	103.289	1.44583	-256.999	98.9523	36.6343	-219.747	96.7437	19.7714	
